<svg width="1009" height="802" viewBox="0 0 1009 802" fill="none" xmlns="http://www.w3.org/2000/svg">
<path d="M583.507 504.044C584.53 503.107 585.719 502.359 587.002 501.833L828.446 402.791C836.342 399.552 845 405.358 845 413.893V639.538C845 644.007 842.517 648.105 838.557 650.174L566.103 792.541C557.987 796.781 548.303 790.736 548.55 781.582L554.511 560.2C556.097 533.794 564.064 521.855 583.507 504.044Z" fill="currentColor"/>
<path d="M446.493 504.044C445.47 503.107 444.281 502.359 442.998 501.833L201.554 402.791C193.658 399.552 185 405.358 185 413.893V639.538C185 644.007 187.483 648.105 191.443 650.174L463.897 792.541C472.013 796.781 481.697 790.736 481.45 781.582L475.489 560.2C473.903 533.794 465.936 521.855 446.493 504.044Z" fill="currentColor"/>
<ellipse cx="926" cy="500" rx="38" ry="36" fill="currentColor"/>
<rect x="888" y="489" width="76" height="69" rx="15" fill="currentColor"/>
<path d="M498.071 94.4589C502.778 92.6332 508.001 92.6553 512.693 94.5206L962.251 273.266C979.018 279.932 979.079 303.644 962.346 310.397L514.543 491.119C509.72 493.065 504.33 493.057 499.513 491.095L46.5918 306.616C29.8333 299.79 30.0331 275.991 46.9039 269.447L498.071 94.4589Z" fill="currentColor"/>
<rect x="912" y="311" width="28" height="245" rx="14" fill="currentColor"/>
</svg>
